<mxfile host="www.draw.io" modified="2020-03-01T04:08:56.643Z" agent="Mozilla/5.0 (Macintosh; Intel Mac OS X 10_13_1) AppleWebKit/537.36 (KHTML, like Gecko) Chrome/80.0.3987.122 Safari/537.36" etag="THXYgSZ0WSUVc8QqEvlH" version="12.7.9" type="github">
  <diagram id="swHmns_OLJNO2oEmDjoU" name="第 1 页">
    <mxGraphModel dx="946" dy="614" grid="1" gridSize="10" guides="1" tooltips="1" connect="1" arrows="1" fold="1" page="1" pageScale="1" pageWidth="3300" pageHeight="4681" math="0" shadow="0">
      <root>
        <mxCell id="0" />
        <mxCell id="1" parent="0" />
        <mxCell id="d7OZnTdrM_z9VQZdlBr1-1" value="" style="endArrow=classic;html=1;" parent="1" source="d7OZnTdrM_z9VQZdlBr1-52" edge="1">
          <mxGeometry width="50" height="50" relative="1" as="geometry">
            <mxPoint x="260" y="130" as="sourcePoint" />
            <mxPoint x="840" y="130" as="targetPoint" />
          </mxGeometry>
        </mxCell>
        <mxCell id="d7OZnTdrM_z9VQZdlBr1-2" value="master" style="text;html=1;strokeColor=none;fillColor=none;align=center;verticalAlign=middle;whiteSpace=wrap;rounded=0;" parent="1" vertex="1">
          <mxGeometry x="210" y="120" width="40" height="20" as="geometry" />
        </mxCell>
        <mxCell id="d7OZnTdrM_z9VQZdlBr1-3" value="" style="endArrow=classic;html=1;fillColor=#f5f5f5;strokeColor=#666666;" parent="1" source="d7OZnTdrM_z9VQZdlBr1-48" edge="1">
          <mxGeometry width="50" height="50" relative="1" as="geometry">
            <mxPoint x="260" y="180" as="sourcePoint" />
            <mxPoint x="840" y="180" as="targetPoint" />
          </mxGeometry>
        </mxCell>
        <mxCell id="d7OZnTdrM_z9VQZdlBr1-4" value="release" style="text;html=1;strokeColor=none;fillColor=none;align=center;verticalAlign=middle;whiteSpace=wrap;rounded=0;fontColor=#333333;" parent="1" vertex="1">
          <mxGeometry x="210" y="170" width="40" height="20" as="geometry" />
        </mxCell>
        <mxCell id="d7OZnTdrM_z9VQZdlBr1-5" value="" style="endArrow=oval;html=1;endFill=1;strokeColor=#009900;" parent="1" source="d7OZnTdrM_z9VQZdlBr1-16" edge="1">
          <mxGeometry width="50" height="50" relative="1" as="geometry">
            <mxPoint x="260" y="220" as="sourcePoint" />
            <mxPoint x="600" y="220" as="targetPoint" />
          </mxGeometry>
        </mxCell>
        <mxCell id="d7OZnTdrM_z9VQZdlBr1-6" value="feature_01" style="text;html=1;strokeColor=none;fillColor=none;align=center;verticalAlign=middle;whiteSpace=wrap;rounded=0;" parent="1" vertex="1">
          <mxGeometry x="200" y="210" width="40" height="20" as="geometry" />
        </mxCell>
        <mxCell id="d7OZnTdrM_z9VQZdlBr1-8" value="" style="ellipse;whiteSpace=wrap;html=1;aspect=fixed;" parent="1" vertex="1">
          <mxGeometry x="270" y="120" width="20" height="20" as="geometry" />
        </mxCell>
        <mxCell id="d7OZnTdrM_z9VQZdlBr1-9" value="" style="endArrow=none;html=1;endFill=0;" parent="1" target="d7OZnTdrM_z9VQZdlBr1-8" edge="1">
          <mxGeometry width="50" height="50" relative="1" as="geometry">
            <mxPoint x="260" y="130" as="sourcePoint" />
            <mxPoint x="790" y="130" as="targetPoint" />
          </mxGeometry>
        </mxCell>
        <mxCell id="d7OZnTdrM_z9VQZdlBr1-10" value="" style="ellipse;whiteSpace=wrap;html=1;aspect=fixed;" parent="1" vertex="1">
          <mxGeometry x="480" y="120" width="20" height="20" as="geometry" />
        </mxCell>
        <mxCell id="d7OZnTdrM_z9VQZdlBr1-11" value="" style="endArrow=none;html=1;endFill=0;" parent="1" source="d7OZnTdrM_z9VQZdlBr1-8" target="d7OZnTdrM_z9VQZdlBr1-10" edge="1">
          <mxGeometry width="50" height="50" relative="1" as="geometry">
            <mxPoint x="300" y="130" as="sourcePoint" />
            <mxPoint x="790" y="130" as="targetPoint" />
          </mxGeometry>
        </mxCell>
        <mxCell id="d7OZnTdrM_z9VQZdlBr1-12" value="" style="ellipse;whiteSpace=wrap;html=1;aspect=fixed;fillColor=#f5f5f5;strokeColor=#666666;fontColor=#333333;" parent="1" vertex="1">
          <mxGeometry x="430" y="170" width="20" height="20" as="geometry" />
        </mxCell>
        <mxCell id="d7OZnTdrM_z9VQZdlBr1-13" value="" style="endArrow=none;html=1;endFill=0;fillColor=#f5f5f5;strokeColor=#666666;" parent="1" target="d7OZnTdrM_z9VQZdlBr1-12" edge="1">
          <mxGeometry width="50" height="50" relative="1" as="geometry">
            <mxPoint x="260" y="180" as="sourcePoint" />
            <mxPoint x="790" y="180" as="targetPoint" />
          </mxGeometry>
        </mxCell>
        <mxCell id="d7OZnTdrM_z9VQZdlBr1-15" value="" style="endArrow=openThin;dashed=1;html=1;exitX=1;exitY=1;exitDx=0;exitDy=0;entryX=0;entryY=0;entryDx=0;entryDy=0;endFill=0;strokeColor=#009900;" parent="1" source="d7OZnTdrM_z9VQZdlBr1-8" target="d7OZnTdrM_z9VQZdlBr1-16" edge="1">
          <mxGeometry width="50" height="50" relative="1" as="geometry">
            <mxPoint x="307.07106781186553" y="147.07106781186553" as="sourcePoint" />
            <mxPoint x="342.92893218813447" y="182.92893218813447" as="targetPoint" />
          </mxGeometry>
        </mxCell>
        <mxCell id="d7OZnTdrM_z9VQZdlBr1-17" value="" style="endArrow=none;html=1;endFill=0;strokeColor=#009900;" parent="1" target="d7OZnTdrM_z9VQZdlBr1-16" edge="1">
          <mxGeometry width="50" height="50" relative="1" as="geometry">
            <mxPoint x="260" y="220" as="sourcePoint" />
            <mxPoint x="790" y="220" as="targetPoint" />
          </mxGeometry>
        </mxCell>
        <mxCell id="d7OZnTdrM_z9VQZdlBr1-22" value="" style="endArrow=oval;html=1;endFill=1;strokeColor=#009900;" parent="1" source="d7OZnTdrM_z9VQZdlBr1-24" edge="1">
          <mxGeometry width="50" height="50" relative="1" as="geometry">
            <mxPoint x="260" y="270" as="sourcePoint" />
            <mxPoint x="600" y="270" as="targetPoint" />
          </mxGeometry>
        </mxCell>
        <mxCell id="d7OZnTdrM_z9VQZdlBr1-23" value="feature_02" style="text;html=1;strokeColor=none;fillColor=none;align=center;verticalAlign=middle;whiteSpace=wrap;rounded=0;" parent="1" vertex="1">
          <mxGeometry x="200" y="260" width="40" height="20" as="geometry" />
        </mxCell>
        <mxCell id="d7OZnTdrM_z9VQZdlBr1-24" value="" style="ellipse;whiteSpace=wrap;html=1;aspect=fixed;fillColor=#006600;strokeColor=#009900;" parent="1" vertex="1">
          <mxGeometry x="390" y="260" width="20" height="20" as="geometry" />
        </mxCell>
        <mxCell id="d7OZnTdrM_z9VQZdlBr1-25" value="" style="endArrow=none;html=1;endFill=0;strokeColor=#009900;" parent="1" target="d7OZnTdrM_z9VQZdlBr1-24" edge="1">
          <mxGeometry width="50" height="50" relative="1" as="geometry">
            <mxPoint x="260" y="270" as="sourcePoint" />
            <mxPoint x="790" y="270" as="targetPoint" />
          </mxGeometry>
        </mxCell>
        <mxCell id="d7OZnTdrM_z9VQZdlBr1-27" value="" style="endArrow=oval;html=1;strokeColor=#FF3333;endFill=1;" parent="1" source="d7OZnTdrM_z9VQZdlBr1-29" edge="1">
          <mxGeometry width="50" height="50" relative="1" as="geometry">
            <mxPoint x="260" y="320" as="sourcePoint" />
            <mxPoint x="480" y="320" as="targetPoint" />
          </mxGeometry>
        </mxCell>
        <mxCell id="d7OZnTdrM_z9VQZdlBr1-28" value="hotfix_01" style="text;html=1;strokeColor=none;fillColor=none;align=center;verticalAlign=middle;whiteSpace=wrap;rounded=0;" parent="1" vertex="1">
          <mxGeometry x="200" y="310" width="40" height="20" as="geometry" />
        </mxCell>
        <mxCell id="d7OZnTdrM_z9VQZdlBr1-29" value="" style="ellipse;whiteSpace=wrap;html=1;aspect=fixed;fillColor=#FF0000;strokeColor=#FF3333;" parent="1" vertex="1">
          <mxGeometry x="310" y="310" width="20" height="20" as="geometry" />
        </mxCell>
        <mxCell id="d7OZnTdrM_z9VQZdlBr1-30" value="" style="endArrow=none;html=1;endFill=0;strokeColor=#FF3333;" parent="1" target="d7OZnTdrM_z9VQZdlBr1-29" edge="1">
          <mxGeometry width="50" height="50" relative="1" as="geometry">
            <mxPoint x="260" y="320" as="sourcePoint" />
            <mxPoint x="790" y="320" as="targetPoint" />
          </mxGeometry>
        </mxCell>
        <mxCell id="d7OZnTdrM_z9VQZdlBr1-31" value="" style="endArrow=openThin;dashed=1;html=1;exitX=1;exitY=1;exitDx=0;exitDy=0;entryX=0;entryY=0;entryDx=0;entryDy=0;endFill=0;fillColor=#f8cecc;strokeColor=#FF0000;" parent="1" source="d7OZnTdrM_z9VQZdlBr1-8" target="d7OZnTdrM_z9VQZdlBr1-29" edge="1">
          <mxGeometry width="50" height="50" relative="1" as="geometry">
            <mxPoint x="307.07106781186553" y="147.07106781186553" as="sourcePoint" />
            <mxPoint x="342.92893218813447" y="272.92893218813447" as="targetPoint" />
          </mxGeometry>
        </mxCell>
        <mxCell id="d7OZnTdrM_z9VQZdlBr1-32" value="" style="endArrow=openThin;dashed=1;html=1;exitX=1;exitY=0;exitDx=0;exitDy=0;endFill=0;entryX=0;entryY=1;entryDx=0;entryDy=0;fillColor=#f8cecc;strokeColor=#FF0000;" parent="1" source="d7OZnTdrM_z9VQZdlBr1-29" target="d7OZnTdrM_z9VQZdlBr1-12" edge="1">
          <mxGeometry width="50" height="50" relative="1" as="geometry">
            <mxPoint x="444.1410678118655" y="310.00106781186554" as="sourcePoint" />
            <mxPoint x="390" y="200" as="targetPoint" />
          </mxGeometry>
        </mxCell>
        <mxCell id="d7OZnTdrM_z9VQZdlBr1-33" value="" style="endArrow=openThin;dashed=1;html=1;exitX=1;exitY=1;exitDx=0;exitDy=0;endFill=0;entryX=0;entryY=0;entryDx=0;entryDy=0;" parent="1" source="d7OZnTdrM_z9VQZdlBr1-8" target="d7OZnTdrM_z9VQZdlBr1-12" edge="1">
          <mxGeometry width="50" height="50" relative="1" as="geometry">
            <mxPoint x="357.07106781186553" y="322.92893218813447" as="sourcePoint" />
            <mxPoint x="402.9289321881347" y="197.0710678118653" as="targetPoint" />
          </mxGeometry>
        </mxCell>
        <mxCell id="d7OZnTdrM_z9VQZdlBr1-34" value="" style="endArrow=openThin;dashed=1;html=1;exitX=1;exitY=0;exitDx=0;exitDy=0;endFill=0;entryX=0;entryY=1;entryDx=0;entryDy=0;" parent="1" source="d7OZnTdrM_z9VQZdlBr1-12" target="d7OZnTdrM_z9VQZdlBr1-10" edge="1">
          <mxGeometry width="50" height="50" relative="1" as="geometry">
            <mxPoint x="307.07106781186553" y="147.07106781186553" as="sourcePoint" />
            <mxPoint x="402.9289321881347" y="182.9289321881347" as="targetPoint" />
          </mxGeometry>
        </mxCell>
        <mxCell id="d7OZnTdrM_z9VQZdlBr1-35" value="" style="ellipse;whiteSpace=wrap;html=1;aspect=fixed;fillColor=#f5f5f5;strokeColor=#666666;fontColor=#333333;" parent="1" vertex="1">
          <mxGeometry x="530" y="170" width="20" height="20" as="geometry" />
        </mxCell>
        <mxCell id="d7OZnTdrM_z9VQZdlBr1-36" value="" style="endArrow=none;html=1;endFill=0;fillColor=#f5f5f5;strokeColor=#666666;" parent="1" source="d7OZnTdrM_z9VQZdlBr1-12" target="d7OZnTdrM_z9VQZdlBr1-35" edge="1">
          <mxGeometry width="50" height="50" relative="1" as="geometry">
            <mxPoint x="410" y="180" as="sourcePoint" />
            <mxPoint x="790" y="180" as="targetPoint" />
          </mxGeometry>
        </mxCell>
        <mxCell id="d7OZnTdrM_z9VQZdlBr1-37" value="" style="endArrow=openThin;dashed=1;html=1;exitX=1;exitY=0;exitDx=0;exitDy=0;entryX=0;entryY=1;entryDx=0;entryDy=0;endFill=0;strokeColor=#009900;" parent="1" source="d7OZnTdrM_z9VQZdlBr1-16" target="d7OZnTdrM_z9VQZdlBr1-35" edge="1">
          <mxGeometry width="50" height="50" relative="1" as="geometry">
            <mxPoint x="460.00106781186554" y="204.14106781186553" as="sourcePoint" />
            <mxPoint x="495.8589321881345" y="279.99893218813446" as="targetPoint" />
          </mxGeometry>
        </mxCell>
        <mxCell id="d7OZnTdrM_z9VQZdlBr1-38" value="" style="endArrow=openThin;dashed=1;html=1;exitX=1;exitY=0;exitDx=0;exitDy=0;endFill=0;entryX=0;entryY=1;entryDx=0;entryDy=0;strokeColor=#009900;" parent="1" source="d7OZnTdrM_z9VQZdlBr1-24" target="d7OZnTdrM_z9VQZdlBr1-35" edge="1">
          <mxGeometry width="50" height="50" relative="1" as="geometry">
            <mxPoint x="357.07106781186553" y="222.92893218813447" as="sourcePoint" />
            <mxPoint x="510" y="190" as="targetPoint" />
          </mxGeometry>
        </mxCell>
        <mxCell id="d7OZnTdrM_z9VQZdlBr1-39" value="" style="endArrow=openThin;dashed=1;html=1;exitX=1;exitY=1;exitDx=0;exitDy=0;endFill=0;entryX=0;entryY=0;entryDx=0;entryDy=0;" parent="1" source="d7OZnTdrM_z9VQZdlBr1-10" target="d7OZnTdrM_z9VQZdlBr1-35" edge="1">
          <mxGeometry width="50" height="50" relative="1" as="geometry">
            <mxPoint x="417.0710678118653" y="182.9289321881347" as="sourcePoint" />
            <mxPoint x="472.9289321881347" y="147.0710678118653" as="targetPoint" />
          </mxGeometry>
        </mxCell>
        <mxCell id="d7OZnTdrM_z9VQZdlBr1-40" value="" style="ellipse;whiteSpace=wrap;html=1;aspect=fixed;" parent="1" vertex="1">
          <mxGeometry x="590" y="120" width="20" height="20" as="geometry" />
        </mxCell>
        <mxCell id="d7OZnTdrM_z9VQZdlBr1-41" value="" style="endArrow=none;html=1;endFill=0;" parent="1" source="d7OZnTdrM_z9VQZdlBr1-10" target="d7OZnTdrM_z9VQZdlBr1-40" edge="1">
          <mxGeometry width="50" height="50" relative="1" as="geometry">
            <mxPoint x="480" y="130" as="sourcePoint" />
            <mxPoint x="790" y="130" as="targetPoint" />
          </mxGeometry>
        </mxCell>
        <mxCell id="d7OZnTdrM_z9VQZdlBr1-42" value="" style="endArrow=openThin;dashed=1;html=1;exitX=1;exitY=0;exitDx=0;exitDy=0;endFill=0;entryX=0;entryY=1;entryDx=0;entryDy=0;" parent="1" source="d7OZnTdrM_z9VQZdlBr1-35" target="d7OZnTdrM_z9VQZdlBr1-40" edge="1">
          <mxGeometry width="50" height="50" relative="1" as="geometry">
            <mxPoint x="487.0710678118653" y="147.0710678118653" as="sourcePoint" />
            <mxPoint x="522.9289321881347" y="182.9289321881347" as="targetPoint" />
          </mxGeometry>
        </mxCell>
        <mxCell id="d7OZnTdrM_z9VQZdlBr1-43" value="" style="endArrow=oval;html=1;strokeColor=#FF3333;endFill=1;" parent="1" source="d7OZnTdrM_z9VQZdlBr1-45" edge="1">
          <mxGeometry width="50" height="50" relative="1" as="geometry">
            <mxPoint x="260" y="370" as="sourcePoint" />
            <mxPoint x="760" y="370" as="targetPoint" />
          </mxGeometry>
        </mxCell>
        <mxCell id="d7OZnTdrM_z9VQZdlBr1-44" value="hotfix_02" style="text;html=1;strokeColor=none;fillColor=none;align=center;verticalAlign=middle;whiteSpace=wrap;rounded=0;" parent="1" vertex="1">
          <mxGeometry x="200" y="360" width="40" height="20" as="geometry" />
        </mxCell>
        <mxCell id="d7OZnTdrM_z9VQZdlBr1-45" value="" style="ellipse;whiteSpace=wrap;html=1;aspect=fixed;fillColor=#FF0000;strokeColor=#FF3333;" parent="1" vertex="1">
          <mxGeometry x="510" y="360" width="20" height="20" as="geometry" />
        </mxCell>
        <mxCell id="d7OZnTdrM_z9VQZdlBr1-46" value="" style="endArrow=none;html=1;endFill=0;strokeColor=#FF3333;" parent="1" target="d7OZnTdrM_z9VQZdlBr1-45" edge="1">
          <mxGeometry width="50" height="50" relative="1" as="geometry">
            <mxPoint x="260" y="370" as="sourcePoint" />
            <mxPoint x="790" y="370" as="targetPoint" />
          </mxGeometry>
        </mxCell>
        <mxCell id="d7OZnTdrM_z9VQZdlBr1-47" value="" style="endArrow=openThin;dashed=1;html=1;exitX=0.5;exitY=1;exitDx=0;exitDy=0;endFill=0;fillColor=#f8cecc;strokeColor=#FF0000;" parent="1" source="d7OZnTdrM_z9VQZdlBr1-10" target="d7OZnTdrM_z9VQZdlBr1-45" edge="1">
          <mxGeometry width="50" height="50" relative="1" as="geometry">
            <mxPoint x="470.00106781186554" y="335.8589321881345" as="sourcePoint" />
            <mxPoint x="515.8589321881348" y="210.0010678118653" as="targetPoint" />
          </mxGeometry>
        </mxCell>
        <mxCell id="d7OZnTdrM_z9VQZdlBr1-48" value="" style="ellipse;whiteSpace=wrap;html=1;aspect=fixed;fillColor=#f5f5f5;strokeColor=#666666;fontColor=#333333;" parent="1" vertex="1">
          <mxGeometry x="670" y="170" width="20" height="20" as="geometry" />
        </mxCell>
        <mxCell id="d7OZnTdrM_z9VQZdlBr1-49" value="" style="endArrow=none;html=1;fillColor=#f5f5f5;strokeColor=#666666;endFill=0;" parent="1" source="d7OZnTdrM_z9VQZdlBr1-35" target="d7OZnTdrM_z9VQZdlBr1-48" edge="1">
          <mxGeometry width="50" height="50" relative="1" as="geometry">
            <mxPoint x="530" y="180" as="sourcePoint" />
            <mxPoint x="790" y="180" as="targetPoint" />
          </mxGeometry>
        </mxCell>
        <mxCell id="d7OZnTdrM_z9VQZdlBr1-50" value="" style="endArrow=openThin;dashed=1;html=1;exitX=1;exitY=0;exitDx=0;exitDy=0;endFill=0;fillColor=#f8cecc;strokeColor=#FF0000;entryX=0.5;entryY=1;entryDx=0;entryDy=0;" parent="1" source="d7OZnTdrM_z9VQZdlBr1-45" target="d7OZnTdrM_z9VQZdlBr1-48" edge="1">
          <mxGeometry width="50" height="50" relative="1" as="geometry">
            <mxPoint x="690" y="340" as="sourcePoint" />
            <mxPoint x="737.8757035566898" y="560.2282363607728" as="targetPoint" />
          </mxGeometry>
        </mxCell>
        <mxCell id="d7OZnTdrM_z9VQZdlBr1-51" value="" style="endArrow=openThin;dashed=1;html=1;exitX=1;exitY=1;exitDx=0;exitDy=0;endFill=0;entryX=0;entryY=0;entryDx=0;entryDy=0;" parent="1" source="d7OZnTdrM_z9VQZdlBr1-40" target="d7OZnTdrM_z9VQZdlBr1-48" edge="1">
          <mxGeometry width="50" height="50" relative="1" as="geometry">
            <mxPoint x="537.0710678118653" y="182.9289321881347" as="sourcePoint" />
            <mxPoint x="602.9289321881347" y="147.0710678118653" as="targetPoint" />
          </mxGeometry>
        </mxCell>
        <mxCell id="d7OZnTdrM_z9VQZdlBr1-52" value="" style="ellipse;whiteSpace=wrap;html=1;aspect=fixed;" parent="1" vertex="1">
          <mxGeometry x="750" y="120" width="20" height="20" as="geometry" />
        </mxCell>
        <mxCell id="d7OZnTdrM_z9VQZdlBr1-53" value="" style="endArrow=none;html=1;endFill=0;" parent="1" source="d7OZnTdrM_z9VQZdlBr1-40" target="d7OZnTdrM_z9VQZdlBr1-52" edge="1">
          <mxGeometry width="50" height="50" relative="1" as="geometry">
            <mxPoint x="610" y="130" as="sourcePoint" />
            <mxPoint x="790" y="130" as="targetPoint" />
          </mxGeometry>
        </mxCell>
        <mxCell id="d7OZnTdrM_z9VQZdlBr1-54" value="" style="endArrow=openThin;dashed=1;html=1;exitX=1;exitY=0;exitDx=0;exitDy=0;endFill=0;entryX=0;entryY=1;entryDx=0;entryDy=0;" parent="1" source="d7OZnTdrM_z9VQZdlBr1-48" target="d7OZnTdrM_z9VQZdlBr1-52" edge="1">
          <mxGeometry width="50" height="50" relative="1" as="geometry">
            <mxPoint x="617.0710678118653" y="147.0710678118653" as="sourcePoint" />
            <mxPoint x="682.9289321881347" y="182.9289321881347" as="targetPoint" />
          </mxGeometry>
        </mxCell>
        <mxCell id="xI-_zgd__dMwFRqkFNWw-1" value="tags" style="text;html=1;strokeColor=none;fillColor=none;align=center;verticalAlign=middle;whiteSpace=wrap;rounded=0;" vertex="1" parent="1">
          <mxGeometry x="210" y="70" width="40" height="20" as="geometry" />
        </mxCell>
        <mxCell id="d7OZnTdrM_z9VQZdlBr1-16" value="" style="ellipse;whiteSpace=wrap;html=1;aspect=fixed;fillColor=#006600;strokeColor=#009900;" parent="1" vertex="1">
          <mxGeometry x="310" y="210" width="20" height="20" as="geometry" />
        </mxCell>
        <mxCell id="xI-_zgd__dMwFRqkFNWw-2" value="" style="endArrow=openThin;dashed=1;html=1;exitX=1;exitY=1;exitDx=0;exitDy=0;entryX=0;entryY=0;entryDx=0;entryDy=0;endFill=0;strokeColor=#009900;" edge="1" parent="1" source="d7OZnTdrM_z9VQZdlBr1-8" target="d7OZnTdrM_z9VQZdlBr1-16">
          <mxGeometry width="50" height="50" relative="1" as="geometry">
            <mxPoint x="287.07106781186553" y="137.07106781186553" as="sourcePoint" />
            <mxPoint x="332.92893218813447" y="262.92893218813447" as="targetPoint" />
          </mxGeometry>
        </mxCell>
        <mxCell id="xI-_zgd__dMwFRqkFNWw-3" value="" style="endArrow=openThin;dashed=1;html=1;exitX=1;exitY=1;exitDx=0;exitDy=0;entryX=0;entryY=0;entryDx=0;entryDy=0;endFill=0;strokeColor=#009900;" edge="1" parent="1" source="d7OZnTdrM_z9VQZdlBr1-8" target="d7OZnTdrM_z9VQZdlBr1-24">
          <mxGeometry width="50" height="50" relative="1" as="geometry">
            <mxPoint x="297.07106781186553" y="147.07106781186553" as="sourcePoint" />
            <mxPoint x="322.92893218813447" y="222.92893218813447" as="targetPoint" />
          </mxGeometry>
        </mxCell>
        <mxCell id="xI-_zgd__dMwFRqkFNWw-5" value="v0.1" style="text;html=1;strokeColor=none;fillColor=none;align=center;verticalAlign=middle;whiteSpace=wrap;rounded=0;" vertex="1" parent="1">
          <mxGeometry x="260" y="70" width="40" height="20" as="geometry" />
        </mxCell>
        <mxCell id="xI-_zgd__dMwFRqkFNWw-6" value="v0.2" style="text;html=1;strokeColor=none;fillColor=none;align=center;verticalAlign=middle;whiteSpace=wrap;rounded=0;" vertex="1" parent="1">
          <mxGeometry x="460" y="70" width="40" height="20" as="geometry" />
        </mxCell>
        <mxCell id="xI-_zgd__dMwFRqkFNWw-7" value="v0.3" style="text;html=1;strokeColor=none;fillColor=none;align=center;verticalAlign=middle;whiteSpace=wrap;rounded=0;" vertex="1" parent="1">
          <mxGeometry x="580" y="70" width="40" height="20" as="geometry" />
        </mxCell>
        <mxCell id="xI-_zgd__dMwFRqkFNWw-8" value="v0.4" style="text;html=1;strokeColor=none;fillColor=none;align=center;verticalAlign=middle;whiteSpace=wrap;rounded=0;" vertex="1" parent="1">
          <mxGeometry x="740" y="70" width="40" height="20" as="geometry" />
        </mxCell>
      </root>
    </mxGraphModel>
  </diagram>
</mxfile>
